<svg width="24" height="24" viewBox="0 0 24 24" fill="none" xmlns="http://www.w3.org/2000/svg">
<path d="M7 14.5C7 14.5 5.5 12 5.5 9H13.5C13.5 9 13.5 6.75 15 5C16.5 3.25 18 2.5 18 2.5L22 6.75V9.25L18 8C16 10.5 17 14.5 17 14.5H7Z" stroke="#BFBFC7" stroke-width="1.5" stroke-linecap="round" stroke-linejoin="round"/>
<path d="M15 14.5L17.5 20.5" stroke="#BFBFC7" stroke-width="1.5" stroke-linecap="round" stroke-linejoin="round"/>
<path d="M9 14.5L6.5 20.5" stroke="#BFBFC7" stroke-width="1.5" stroke-linecap="round" stroke-linejoin="round"/>
<path d="M2 18.5C2 18.5 5 21.5 12 21.5C19 21.5 22 18.5 22 18.5" stroke="#BFBFC7" stroke-width="1.5" stroke-linecap="round" stroke-linejoin="round"/>
<path d="M5.5 9C5.5 7.5 4.5 6 2 6" stroke="#BFBFC7" stroke-width="1.5" stroke-linecap="round" stroke-linejoin="round"/>
</svg>
