<svg width="24" height="24" viewBox="0 0 24 24" fill="none" xmlns="http://www.w3.org/2000/svg">
<path opacity="0.5" d="M23 12C23 18.0751 18.0751 23 12 23C5.92487 23 1 18.0751 1 12C1 5.92487 5.92487 1 12 1C18.0751 1 23 5.92487 23 12Z" fill="url(#paint0_linear_2896_17516)"/>
<path d="M20 16.5V21C20 21.5523 19.5523 22 19 22H15.75" stroke="#3F3F46" stroke-width="1.5" stroke-linecap="round" stroke-linejoin="round"/>
<path d="M20 8V3C20 2.44771 19.5523 2 19 2H5C4.44771 2 4 2.44771 4 3V21C4 21.5523 4.44771 22 5 22H8" stroke="#3F3F46" stroke-width="1.5" stroke-linecap="round" stroke-linejoin="round"/>
<path d="M8 8H15" stroke="#3F3F46" stroke-width="1.5" stroke-linecap="round"/>
<path d="M11.5 22L20 11.5" stroke="#3F3F46" stroke-width="1.5" stroke-linecap="round"/>
<path d="M8 12H12" stroke="#3F3F46" stroke-width="1.5" stroke-linecap="round"/>
<defs>
<linearGradient id="paint0_linear_2896_17516" x1="11.384" y1="1" x2="11.3969" y2="16.3725" gradientUnits="userSpaceOnUse">
<stop stop-color="#3E4997"/>
<stop offset="0.49564" stop-color="#98A4FF"/>
<stop offset="1" stop-color="white"/>
</linearGradient>
</defs>
</svg>
