<svg width="19" height="18" viewBox="0 0 19 18" fill="none" xmlns="http://www.w3.org/2000/svg">
<path d="M9.5 16.5C11.571 16.5 13.4461 15.6605 14.8033 14.3033C16.1605 12.9461 17 11.071 17 9C17 6.92895 16.1605 5.05395 14.8033 3.6967C13.4461 2.33947 11.571 1.5 9.5 1.5C7.42895 1.5 5.55395 2.33947 4.1967 3.6967C2.83947 5.05395 2 6.92895 2 9C2 11.071 2.83947 12.9461 4.1967 14.3033C5.55395 15.6605 7.42895 16.5 9.5 16.5Z" stroke="#7F7F8F" stroke-width="1.5" stroke-linejoin="round"/>
<path d="M9.5 10.7344V9.23438C10.7426 9.23438 11.75 8.22701 11.75 6.98438C11.75 5.74174 10.7426 4.73438 9.5 4.73438C8.25736 4.73438 7.25 5.74174 7.25 6.98438" stroke="#7F7F8F" stroke-width="1.5" stroke-linecap="round" stroke-linejoin="round"/>
<path fill-rule="evenodd" clip-rule="evenodd" d="M9.5 14.1094C10.0178 14.1094 10.4375 13.6896 10.4375 13.1719C10.4375 12.6541 10.0178 12.2344 9.5 12.2344C8.98224 12.2344 8.5625 12.6541 8.5625 13.1719C8.5625 13.6896 8.98224 14.1094 9.5 14.1094Z" fill="#7F7F8F"/>
</svg>
