<svg width="10" height="11" viewBox="0 0 10 11" fill="none" xmlns="http://www.w3.org/2000/svg">
<path d="M5.5771 5.49777L8.50679 2.00558C8.55589 1.94754 8.5146 1.85938 8.43871 1.85938H7.54808C7.49563 1.85938 7.4454 1.88281 7.4108 1.92299L4.99451 4.80357L2.57821 1.92299C2.54473 1.88281 2.49451 1.85938 2.44094 1.85938H1.55031C1.47442 1.85938 1.43313 1.94754 1.48223 2.00558L4.41192 5.49777L1.48223 8.98996C1.47123 9.00289 1.46417 9.01871 1.4619 9.03554C1.45962 9.05237 1.46222 9.0695 1.46939 9.08489C1.47656 9.10028 1.48799 9.1133 1.50234 9.12238C1.51668 9.13147 1.53333 9.13625 1.55031 9.13616H2.44094C2.49339 9.13616 2.54362 9.11272 2.57821 9.07255L4.99451 6.19196L7.4108 9.07255C7.44429 9.11272 7.49451 9.13616 7.54808 9.13616H8.43871C8.5146 9.13616 8.55589 9.04799 8.50679 8.98996L5.5771 5.49777Z" fill="#7F7F8F"/>
</svg>
