<svg width="22" height="22" viewBox="0 0 22 22" fill="none" xmlns="http://www.w3.org/2000/svg">
<path d="M8.38012 19.7868C6.8442 19.3296 5.47703 18.4806 4.39448 17.3557C4.79833 16.8771 5.04171 16.2586 5.04171 15.5834C5.04171 14.0646 3.81049 12.8334 2.29171 12.8334C2.19983 12.8334 2.10901 12.8379 2.01945 12.8467C1.89744 12.2502 1.83337 11.6326 1.83337 11C1.83337 10.0418 1.98039 9.11798 2.25311 8.24976C2.26595 8.24995 2.27882 8.25004 2.29171 8.25004C3.81049 8.25004 5.04171 7.01882 5.04171 5.50004C5.04171 5.06403 4.94023 4.65175 4.75965 4.28546C5.81973 3.29976 7.1136 2.56208 8.54892 2.16476C9.00372 3.05625 9.93061 3.66672 11 3.66672C12.0695 3.66672 12.9964 3.05625 13.4512 2.16476C14.8865 2.56208 16.1804 3.29976 17.2404 4.28546C17.0598 4.65175 16.9584 5.06403 16.9584 5.50004C16.9584 7.01882 18.1896 8.25004 19.7084 8.25004C19.7213 8.25004 19.7341 8.24995 19.747 8.24976C20.0197 9.11798 20.1667 10.0418 20.1667 11C20.1667 11.6326 20.1026 12.2502 19.9806 12.8467C19.8911 12.8379 19.8003 12.8334 19.7084 12.8334C18.1896 12.8334 16.9584 14.0646 16.9584 15.5834C16.9584 16.2586 17.2018 16.8771 17.6056 17.3557C16.5231 18.4806 15.1559 19.3296 13.62 19.7868C13.2655 18.678 12.2265 17.875 11 17.875C9.77354 17.875 8.73459 18.678 8.38012 19.7868Z" stroke="#3F3F46" stroke-width="1.5" stroke-linejoin="round"/>
<path d="M11 14.2083C12.7719 14.2083 14.2083 12.7719 14.2083 11C14.2083 9.22807 12.7719 7.79166 11 7.79166C9.22804 7.79166 7.79163 9.22807 7.79163 11C7.79163 12.7719 9.22804 14.2083 11 14.2083Z" stroke="#3F3F46" stroke-width="1.5" stroke-linejoin="round"/>
</svg>
