<svg width="18" height="18" viewBox="0 0 18 18" fill="none" xmlns="http://www.w3.org/2000/svg">
<path d="M13.125 6C14.1605 6 15 5.16052 15 4.125C15 3.08947 14.1605 2.25 13.125 2.25C12.0895 2.25 11.25 3.08947 11.25 4.125C11.25 5.16052 12.0895 6 13.125 6Z" stroke="#7F7F8F" stroke-width="1.3" stroke-linejoin="round"/>
<path d="M4.875 10.875C5.91052 10.875 6.75 10.0355 6.75 9C6.75 7.96448 5.91052 7.125 4.875 7.125C3.83948 7.125 3 7.96448 3 9C3 10.0355 3.83948 10.875 4.875 10.875Z" stroke="#7F7F8F" stroke-width="1.3" stroke-linejoin="round"/>
<path d="M11.2504 5.09045L6.50244 7.96704" stroke="#7F7F8F" stroke-width="1.3" stroke-linecap="round" stroke-linejoin="round"/>
<path d="M6.50195 9.96143L11.5046 12.9176" stroke="#7F7F8F" stroke-width="1.3" stroke-linecap="round" stroke-linejoin="round"/>
<path d="M13.125 12C14.1605 12 15 12.8395 15 13.875C15 14.9105 14.1605 15.75 13.125 15.75C12.0895 15.75 11.25 14.9105 11.25 13.875C11.25 12.8395 12.0895 12 13.125 12Z" stroke="#7F7F8F" stroke-width="1.3" stroke-linejoin="round"/>
</svg>
